# File created by Blade
# Date/Time:  Wed Jan 21 14:37:15 2015
# Frame Rate: 120.000 fps
#------------------------------------------------------
:FULLY-SPECIFIED
:DEGREES
568
root 18.610101 35.517352 -22.118130 -172.516270 -1.662869 -178.213475
Spine -22.179111 -16.886896 6.668256
Head 7.251221 10.662255 1.988628
LeftShoulder 107.053667 -77.073269 -62.970845
LeftArm 44.363296 39.432070 -100.756505
LeftForeArm 38.029509 -0.000000 68.794139
LeftHand -3.035158 -0.000000 -9.425649
LeftHandThumb1 -26.253704 0.000000 33.147579
RightShoulder 11.052128 2.948862 5.299488
RightArm 48.538524 -14.289644 56.653136
RightForeArm 35.990401 -0.000000 131.704803
RightHand 3.795489 -0.000000 -4.140228
RightHandThumb1 -24.326973 -0.000000 -32.862282
LeftUpLeg 0.712624 13.273723 1.890767
LeftLeg -6.570486 -0.000000 0.000000
LeftFoot -20.335906 29.159334 -11.842797
LeftToeBase 26.946391 -0.000000 -0.000000
RightUpLeg -0.007513 -9.259468 1.759331
RightLeg -3.926219 -0.000000 0.000000
RightFoot -20.158461 -25.451021 14.666335
RightToeBase 23.734700 -0.000000 -0.000000
569
root 18.607409 35.517521 -22.118251 -172.522333 -1.643479 -178.224686
Spine -22.175454 -16.889978 6.707268
Head 7.270247 10.669549 1.923051
LeftShoulder 107.087595 -77.099803 -63.016498
LeftArm 44.373323 39.415728 -100.771670
LeftForeArm 38.201770 0.000000 68.824916
LeftHand -3.070821 0.000000 -9.514713
LeftHandThumb1 -26.253704 0.000000 33.147579
RightShoulder 11.069491 2.960929 5.286741
RightArm 48.538276 -14.258951 56.637803
RightForeArm 36.071278 0.000000 131.701641
RightHand 3.773341 0.000000 -4.107604
RightHandThumb1 -24.326973 -0.000000 -32.862282
LeftUpLeg 0.709285 13.279484 1.877030
LeftLeg -6.543858 -0.000000 0.000000
LeftFoot -20.357134 29.154974 -11.859836
LeftToeBase 26.966642 -0.000000 -0.000000
RightUpLeg -0.004533 -9.251728 1.742389
RightLeg -3.927382 -0.000000 0.000000
RightFoot -20.164803 -25.410475 14.782719
RightToeBase 23.520268 -0.000000 -0.000000
570
root 18.604282 35.517822 -22.118946 -172.529125 -1.618737 -178.238330
Spine -22.166907 -16.882983 6.739955
Head 7.271094 10.720286 1.909774
LeftShoulder 107.159124 -77.124633 -63.115841
LeftArm 44.371875 39.401869 -100.809284
LeftForeArm 38.344710 0.000000 68.822895
LeftHand -3.058268 -0.000000 -9.742561
LeftHandThumb1 -26.253704 0.000000 33.147579
RightShoulder 11.073555 2.978740 5.266834
RightArm 48.541723 -14.251734 56.630471
RightForeArm 36.100657 -0.000000 131.714456
RightHand 3.763681 0.000000 -4.115601
RightHandThumb1 -24.326973 -0.000000 -32.862282
LeftUpLeg 0.696433 13.337470 1.856896
LeftLeg -6.497676 -0.000000 0.000000
LeftFoot -20.368768 29.116414 -11.856441
LeftToeBase 26.940141 -0.000000 -0.000000
RightUpLeg -0.000207 -9.238656 1.722987
RightLeg -3.926777 -0.000000 0.000000
RightFoot -20.149275 -25.431224 14.734513
RightToeBase 23.511980 -0.000000 -0.000000
571
root 18.601737 35.517593 -22.119566 -172.543225 -1.607521 -178.245384
Spine -22.156922 -16.887986 6.787862
Head 7.312184 10.758637 1.838531
LeftShoulder 107.225812 -77.154705 -63.209342
LeftArm 44.379543 39.371523 -100.856610
LeftForeArm 38.270035 0.000000 68.815071
LeftHand -3.102225 0.000000 -9.614235
LeftHandThumb1 -26.253704 0.000000 33.147579
RightShoulder 11.085435 2.909728 5.225838
RightArm 48.611651 -14.164056 56.653382
RightForeArm 36.268941 -0.000000 131.671871
RightHand 3.901987 -0.000000 -3.968021
RightHandThumb1 -24.326973 -0.000000 -32.862282
LeftUpLeg 0.711886 13.300574 1.851335
LeftLeg -6.488932 -0.000000 0.000000
LeftFoot -20.391850 29.150171 -11.881080
LeftToeBase 26.958822 -0.000000 -0.000000
RightUpLeg 0.015253 -9.251813 1.709181
RightLeg -3.928203 -0.000000 0.000000
RightFoot -20.142323 -25.409297 14.708862
RightToeBase 23.494363 -0.000000 -0.000000
572
root 18.599539 35.517358 -22.120522 -172.561926 -1.588898 -178.255413
Spine -22.133787 -16.888168 6.812314
Head 7.312067 10.810557 1.861548
LeftShoulder 107.578217 -77.169574 -63.550026
LeftArm 44.280384 39.300968 -100.982073
LeftForeArm 38.291048 0.000000 68.814788
LeftHand -3.079611 0.000000 -9.751317
LeftHandThumb1 -26.253704 0.000000 33.147579
RightShoulder 11.080608 2.922009 5.220548
RightArm 48.625127 -14.156962 56.643942
RightForeArm 36.160696 -0.000000 131.688163
RightHand 3.989160 -0.000000 -3.945535
RightHandThumb1 -24.326973 -0.000000 -32.862282
LeftUpLeg 0.727633 13.306549 1.842226
LeftLeg -6.471581 -0.000000 0.000000
LeftFoot -20.398611 29.154849 -11.882258
LeftToeBase 26.940998 -0.000000 -0.000000
RightUpLeg 0.032655 -9.235706 1.692805
RightLeg -3.924413 -0.000000 0.000000
RightFoot -20.162581 -25.466772 14.611380
RightToeBase 23.724339 -0.000000 -0.000000
573
root 18.597401 35.517427 -22.120443 -172.566321 -1.582894 -178.263328
Spine -22.130740 -16.889111 6.845329
Head 7.326950 10.837994 1.837349
LeftShoulder 107.727482 -77.180943 -63.720588
LeftArm 44.257629 39.265574 -101.053725
LeftForeArm 38.182375 -0.000000 68.791498
LeftHand -3.108783 0.000000 -9.570330
LeftHandThumb1 -26.253704 0.000000 33.147579
RightShoulder 11.055815 2.915049 5.195202
RightArm 48.664771 -14.142454 56.661134
RightForeArm 36.159364 -0.000000 131.686140
RightHand 4.176637 -0.000000 -3.780304
RightHandThumb1 -24.326973 -0.000000 -32.862282
LeftUpLeg 0.720820 13.304158 1.833016
LeftLeg -6.444758 -0.000000 0.000000
LeftFoot -20.407976 29.147980 -11.881548
LeftToeBase 26.960691 -0.000000 -0.000000
RightUpLeg 0.041415 -9.234701 1.682062
RightLeg -3.941420 -0.000000 0.000000
RightFoot -20.154769 -25.426768 14.727978
RightToeBase 23.524150 -0.000000 -0.000000
574
root 18.595585 35.517307 -22.120700 -172.572949 -1.575841 -178.267436
Spine -22.132418 -16.905055 6.888489
Head 7.354844 10.877231 1.813104
LeftShoulder 107.880732 -77.189876 -63.885716
LeftArm 44.207753 39.213920 -101.135111
LeftForeArm 38.136964 -0.000000 68.782616
LeftHand -3.126392 0.000000 -9.521990
LeftHandThumb1 -26.253704 0.000000 33.147579
RightShoulder 11.062144 2.937963 5.185968
RightArm 48.661339 -14.141851 56.680956
RightForeArm 35.904331 -0.000000 131.778166
RightHand 3.794753 0.000000 -3.993811
RightHandThumb1 -24.326973 -0.000000 -32.862282
LeftUpLeg 0.721021 13.311012 1.827824
LeftLeg -6.430918 -0.000000 0.000000
LeftFoot -20.404094 29.157103 -11.863921
LeftToeBase 26.808887 -0.000000 -0.000000
RightUpLeg 0.045744 -9.231380 1.672020
RightLeg -3.932715 -0.000000 0.000000
RightFoot -20.148342 -25.421678 14.699891
RightToeBase 23.526550 -0.000000 -0.000000
575
root 18.594415 35.517440 -22.120553 -172.577192 -1.573412 -178.272443
Spine -22.138032 -16.914652 6.917904
Head 7.383420 10.876780 1.811249
LeftShoulder 108.031165 -77.178580 -64.049358
LeftArm 44.210855 39.187021 -101.167235
LeftForeArm 38.064074 -0.000000 68.727600
LeftHand -3.124649 -0.000000 -9.392792
LeftHandThumb1 -26.253704 0.000000 33.147579
RightShoulder 11.044810 2.960762 5.190190
RightArm 48.653742 -14.138501 56.713064
RightForeArm 35.849480 -0.000000 131.758681
RightHand 4.026182 -0.000000 -3.824112
RightHandThumb1 -24.326973 -0.000000 -32.862282
LeftUpLeg 0.718085 13.307649 1.822878
LeftLeg -6.412477 -0.000000 0.000000
LeftFoot -20.418434 29.143625 -11.875624
LeftToeBase 26.928048 -0.000000 -0.000000
RightUpLeg 0.047701 -9.222928 1.665689
RightLeg -3.928766 -0.000000 0.000000
RightFoot -20.151062 -25.423554 14.718236
RightToeBase 23.440399 -0.000000 -0.000000
576
root 18.593072 35.516932 -22.120108 -172.581062 -1.571339 -178.280182
Spine -22.144814 -16.942815 6.946081
Head 7.417403 10.913690 1.815195
LeftShoulder 108.054175 -77.174694 -64.085914
LeftArm 44.208678 39.159017 -101.190442
LeftForeArm 38.009599 -0.000000 68.712217
LeftHand -3.144178 -0.000000 -9.314325
LeftHandThumb1 -26.253704 0.000000 33.147579
RightShoulder 11.041979 2.979503 5.196043
RightArm 48.662724 -14.137252 56.741175
RightForeArm 35.818183 0.000000 131.762637
RightHand 4.080727 0.000000 -3.798372
RightHandThumb1 -24.326973 -0.000000 -32.862282
LeftUpLeg 0.717640 13.302588 1.814017
LeftLeg -6.404344 -0.000000 0.000000
LeftFoot -20.427177 29.153213 -11.870901
LeftToeBase 26.966480 -0.000000 -0.000000
RightUpLeg 0.049071 -9.222820 1.653980
RightLeg -3.923155 -0.000000 0.000000
RightFoot -20.164877 -25.482664 14.565075
RightToeBase 23.765327 -0.000000 -0.000000
577
root 18.592606 35.516943 -22.120655 -172.587551 -1.569797 -178.276636
Spine -22.154753 -16.966621 6.988838
Head 7.456502 10.925114 1.818744
LeftShoulder 108.091323 -77.174953 -64.132496
LeftArm 44.194299 39.129833 -101.218849
LeftForeArm 38.039556 -0.000000 68.731574
LeftHand -3.186346 0.000000 -9.258948
LeftHandThumb1 -26.253704 0.000000 33.147579
RightShoulder 11.047383 3.039613 5.210070
RightArm 48.621670 -14.162125 56.775207
RightForeArm 35.780427 -0.000000 131.764401
RightHand 3.973150 -0.000000 -3.878447
RightHandThumb1 -24.326973 -0.000000 -32.862282
LeftUpLeg 0.724130 13.318064 1.818382
LeftLeg -6.403968 -0.000000 0.000000
LeftFoot -20.422432 29.141135 -11.867166
LeftToeBase 26.797303 -0.000000 -0.000000
RightUpLeg 0.056998 -9.207061 1.654243
RightLeg -3.924987 -0.000000 0.000000
RightFoot -20.155980 -25.444313 14.674153
RightToeBase 23.530056 -0.000000 -0.000000
578
root 18.592370 35.516636 -22.120580 -172.592817 -1.576619 -178.279717
Spine -22.168488 -17.000490 7.022573
Head 7.516937 10.930863 1.791626
LeftShoulder 108.149777 -77.188208 -64.196705
LeftArm 44.171734 39.102015 -101.259844
LeftForeArm 38.099523 0.000000 68.762201
LeftHand -3.185163 -0.000000 -9.210028
LeftHandThumb1 -26.253704 0.000000 33.147579
RightShoulder 11.045076 3.042868 5.215587
RightArm 48.618112 -14.142709 56.820031
RightForeArm 35.819839 0.000000 131.736975
RightHand 4.025687 0.000000 -3.753581
RightHandThumb1 -24.326973 -0.000000 -32.862282
LeftUpLeg 0.725220 13.322899 1.816165
LeftLeg -6.397773 -0.000000 0.000000
LeftFoot -20.428857 29.134643 -11.872951
LeftToeBase 26.780819 -0.000000 -0.000000
RightUpLeg 0.064055 -9.202884 1.650269
RightLeg -3.924492 -0.000000 0.000000
RightFoot -20.182235 -25.490672 14.591805
RightToeBase 23.745786 -0.000000 -0.000000
